<svg width="29" height="22" viewBox="0 0 29 22" fill="none" xmlns="http://www.w3.org/2000/svg">
<path d="M14.0361 15.907C13.7678 13.8935 11.6267 12.3199 9.03369 12.3199C6.97759 12.3199 5.15956 13.3018 4.38606 14.7949C4.37837 14.7949 4.37112 14.7949 4.36343 14.7949C1.95718 14.7951 0 16.411 0 18.3975C0 20.3839 1.95718 22 4.36343 22C4.40513 22 4.44683 21.9995 4.48809 21.9988C4.50199 21.9997 4.51648 22 4.53038 22H13.8703C13.9027 22 13.9346 21.9974 13.9661 21.9923C15.8976 21.8806 17.4001 20.5541 17.4001 18.9475C17.3999 17.3567 15.919 16.0463 14.0361 15.907ZM13.8425 21.117C13.8296 21.1179 13.8168 21.1187 13.8039 21.12H4.59322C4.56439 21.117 4.53452 21.1157 4.50716 21.1174C2.62776 21.1775 1.05459 19.9384 1.05459 18.3975C1.05459 16.8962 2.53904 15.6751 4.36343 15.6751C4.47419 15.6751 4.58331 15.6794 4.69141 15.6879C4.9308 15.7111 5.1631 15.5835 5.24133 15.3897C5.76655 14.08 7.29018 13.2 9.03355 13.2C11.226 13.2 13.0097 14.6063 13.0097 16.3383C13.0097 16.4587 13.0689 16.5738 13.173 16.6567C13.2771 16.7396 13.4159 16.7852 13.5617 16.7779C13.6086 16.7761 13.6559 16.7749 13.7038 16.7749C15.1605 16.7749 16.3453 17.7495 16.3453 18.9474C16.3453 20.1046 15.2461 21.0577 13.8425 21.117Z" fill="white"/>
<path d="M15.0309 9.67222C15.0633 9.6774 15.0959 9.67999 15.1293 9.67999H24.4698C24.4837 9.67999 24.498 9.6795 24.5121 9.67876C24.5532 9.67962 24.595 9.67999 24.6367 9.67999C27.043 9.67999 29 8.06391 29 6.07751C29 4.091 27.0428 2.47503 24.6367 2.47503C24.629 2.47503 24.6218 2.47503 24.6141 2.47503C23.8408 0.981844 22.0226 0 19.9666 0C17.3751 0 15.2346 1.57216 14.9648 3.58706C13.0817 3.72625 11.6004 5.03681 11.6004 6.62748C11.6 8.23357 13.101 9.55981 15.0309 9.67222ZM15.2961 4.45501C15.344 4.45501 15.3913 4.45624 15.4382 4.45797C15.5813 4.46402 15.7224 4.41799 15.8269 4.33507C15.931 4.25215 15.9902 4.1353 15.9902 4.01499C15.9902 2.28636 17.7737 0.880045 19.9663 0.880045C21.7098 0.880045 23.2335 1.76009 23.7587 3.06979C23.8365 3.26451 24.0717 3.38518 24.3086 3.36803C24.4163 3.3594 24.5258 3.3552 24.6366 3.3552C26.461 3.3552 27.9454 4.57643 27.9454 6.07764C27.9448 7.61845 26.3647 8.86584 24.4929 8.79748C24.4852 8.79699 24.4769 8.79699 24.4692 8.79699C24.4486 8.79699 24.4285 8.79785 24.4084 8.79995H15.1966C15.1837 8.79872 15.1702 8.79785 15.1574 8.79699C13.7537 8.73764 12.6544 7.78467 12.6544 6.62748C12.6546 5.42957 13.8394 4.45501 15.2961 4.45501Z" fill="white"/>
<path d="M9.33785 9.56905L4.16144 10.1427C3.8731 10.1745 3.66978 10.3958 3.70837 10.6368C3.74342 10.858 3.96995 11.0188 4.2305 11.0188C4.25371 11.0188 4.27678 11.0176 4.30059 11.015L10.071 10.3755C10.2214 10.3588 10.3558 10.2892 10.4396 10.1839C10.524 10.079 10.5498 9.94848 10.5112 9.82645L9.02511 5.16216C8.95 4.9271 8.66106 4.78791 8.37997 4.84973C8.09828 4.91241 7.93089 5.15352 8.00556 5.38809L9.33785 9.56905Z" fill="white"/>
<path d="M0.526822 9.25896C0.550038 9.25896 0.573105 9.25773 0.596912 9.25514L6.36805 8.61584C6.51843 8.59905 6.65284 8.52946 6.73668 8.42421C6.82112 8.31932 6.84684 8.18877 6.80825 8.06673L5.32218 3.40245C5.24751 3.16738 4.95857 3.02943 4.67703 3.09002C4.39534 3.1527 4.22796 3.39381 4.30263 3.62838L5.63477 7.80921L0.457768 8.38275C0.169426 8.41458 -0.0338929 8.63583 0.00470067 8.87681C0.0397454 9.09806 0.266279 9.25896 0.526822 9.25896Z" fill="white"/>
<path d="M18.6197 13.3298L23.7967 12.7561C24.085 12.7243 24.2883 12.503 24.2498 12.262C24.2116 12.0209 23.9459 11.8518 23.6577 11.884L17.8866 12.5233C17.7362 12.54 17.6018 12.6096 17.5179 12.7149C17.4335 12.8198 17.4078 12.9503 17.4464 13.0724L18.9324 17.7362C18.9953 17.9333 19.2083 18.0631 19.4417 18.0631C19.4865 18.0631 19.5323 18.0585 19.5776 18.0486C19.8593 17.9859 20.0267 17.7448 19.952 17.5102L18.6197 13.3298Z" fill="white"/>
<path d="M27.3484 14.5238L21.5773 15.1631C21.4269 15.1799 21.2925 15.2495 21.2087 15.3548C21.1242 15.4596 21.0985 15.5902 21.1371 15.7122L22.6232 20.376C22.686 20.5732 22.8991 20.703 23.1324 20.703C23.1772 20.703 23.2231 20.6983 23.2683 20.6885C23.55 20.6258 23.7174 20.3847 23.6427 20.1501L22.3106 15.9696L27.4876 15.396C27.7759 15.3641 27.9792 15.1429 27.9406 14.9019C27.9025 14.661 27.6374 14.493 27.3484 14.5238Z" fill="white"/>
</svg>
