<svg width="88" height="61" viewBox="0 0 88 61" fill="none" xmlns="http://www.w3.org/2000/svg">
<path d="M72.3594 40.6074H15.6406C11.507 40.6074 7.59791 39.3505 4.63323 37.0679C1.64536 34.7676 0 31.7171 0 28.4785C0 25.24 1.64536 22.1894 4.63323 19.8891C6.97314 18.0875 9.90172 16.9249 13.0646 16.5148C13.0632 16.4601 13.0625 16.405 13.0625 16.3496C13.0625 7.43244 22.3149 0.177734 33.6875 0.177734C37.905 0.177734 41.958 1.17325 45.4083 3.05673C47.8371 4.38256 49.8537 6.08128 51.3528 8.04899C53.7728 6.87208 56.5641 6.24219 59.4688 6.24219C67.1835 6.24219 73.5972 10.693 74.7522 16.4919C77.9852 16.88 80.9815 18.0526 83.3668 19.8891C86.3546 22.1894 88 25.24 88 28.4785C88 31.7171 86.3546 34.7676 83.3668 37.0679C80.4021 39.3505 76.493 40.6074 72.3594 40.6074ZM15.6406 20.3926C9.85944 20.3926 5.15625 24.0199 5.15625 28.4785C5.15625 32.9371 9.85944 36.5645 15.6406 36.5645H72.3594C78.1406 36.5645 82.8438 32.9371 82.8438 28.4785C82.8438 24.0199 78.1406 20.3926 72.3594 20.3926H69.7812V18.3711C69.7812 13.9125 65.1551 10.2852 59.4688 10.2852C56.759 10.2852 54.1956 11.1099 52.2509 12.6076L49.4756 14.7446L48.0466 11.908C45.6937 7.23824 40.0577 4.2207 33.6875 4.2207C25.158 4.2207 18.2188 9.66173 18.2188 16.3496C18.2188 16.8278 18.3145 17.3412 18.4157 17.8847L18.8775 20.3926H15.6406Z" fill="white"/>
<path d="M28.5312 52.7363C20.4712 52.7363 12.5792 50.6979 12.2473 50.6111L9.80151 49.9719L11.4319 46.1365L13.8765 46.7752C13.9501 46.7944 21.3283 48.6934 28.5312 48.6934C35.7342 48.6934 43.1124 46.7944 43.1862 46.7752C43.5167 46.6889 51.4087 44.6504 59.4687 44.6504C67.5288 44.6504 75.4208 46.6889 75.7527 46.7756L78.1985 47.4148L76.5681 51.2503L74.1223 50.6111C74.0499 50.5923 66.6717 48.6934 59.4687 48.6934C52.2658 48.6934 44.8876 50.5923 44.8138 50.6115C44.4833 50.6979 36.5913 52.7363 28.5312 52.7363Z" fill="white"/>
<path d="M28.5312 60.8223C20.4712 60.8223 12.5792 58.7838 12.2473 58.697L9.80151 58.0578L11.4319 54.2224L13.8765 54.8612C13.9501 54.8803 21.3283 56.7793 28.5312 56.7793C35.7342 56.7793 43.1124 54.8803 43.1862 54.8612C43.5167 54.7748 51.4087 52.7363 59.4687 52.7363C67.5288 52.7363 75.4208 54.7748 75.7527 54.8616L78.1985 55.5008L76.5681 59.3362L74.1223 58.697C74.0499 58.6783 66.6717 56.7793 59.4687 56.7793C52.2658 56.7793 44.8876 58.6783 44.8138 58.6974C44.4833 58.7838 36.5913 60.8223 28.5312 60.8223Z" fill="white"/>
</svg>
