<svg width="27" height="21" viewBox="0 0 27 21" fill="none" xmlns="http://www.w3.org/2000/svg">
<g clip-path="url(#clip0)">
<path d="M26.0399 8.42591C26.0399 5.81946 21.3527 1.47057 20.4118 0.625619C19.9503 0.230163 19.1787 0.211311 18.6884 0.583606C18.6705 0.5972 18.6531 0.611185 18.6363 0.625619C16.9934 2.11748 15.5272 3.73007 14.2568 5.44229C13.4875 4.68327 12.8956 4.14382 12.7003 3.96721C12.2388 3.57176 11.4673 3.5529 10.9769 3.9252C10.9591 3.93879 10.9416 3.95278 10.9249 3.96721C9.31031 5.44313 7.81206 6.99922 6.43886 8.62635C5.89436 7.88641 5.36769 7.25627 5.08362 6.92689C4.71181 6.49317 3.97451 6.38475 3.43688 6.68466C3.31947 6.75017 3.21773 6.83223 3.13658 6.92689C2.4264 7.79572 -7.75237e-05 10.7459 -7.75237e-05 12.2448C-0.00992575 13.9723 1.61427 15.4211 3.74613 15.5864C4.7338 19.1904 9.15648 21.4663 13.6246 20.6696C17.4151 19.9938 20.1157 17.2856 20.1217 14.1543C20.1181 13.9945 20.1023 13.8351 20.0743 13.6769C23.4556 13.4481 26.0519 11.1628 26.0399 8.42591ZM4.1427 13.677C3.16217 13.677 2.36724 13.0358 2.36724 12.2449C2.36724 11.7676 3.17805 10.493 4.1427 9.22314C5.10734 10.493 5.91815 11.7676 5.91815 12.2449C5.91815 13.0358 5.12322 13.677 4.1427 13.677ZM11.8363 18.9281C9.0734 18.9159 6.68402 17.372 6.06608 15.1998C7.42867 14.6237 8.28325 13.4859 8.2854 12.2449C8.23907 11.7075 8.07054 11.1816 7.78827 10.6935C7.83571 10.4832 7.94085 10.2843 8.09599 10.1111C9.24303 8.70506 10.492 7.35496 11.8363 6.06773C14.4285 8.54054 17.7545 12.3357 17.7545 14.1544C17.7545 16.7908 15.1049 18.9281 11.8363 18.9281ZM19.53 11.7675H19.388C18.4387 10.1126 17.2636 8.54831 15.8844 7.10355C15.9065 7.0447 15.9384 6.98848 15.9791 6.93645C16.9767 5.43955 18.1669 4.03149 19.53 2.73559C21.4711 4.64506 23.6727 7.23244 23.6727 8.42586C23.6727 10.2714 21.8179 11.7675 19.53 11.7675Z" fill="white"/>
<path d="M22.5901 7.32912C22.5815 7.31077 22.5714 7.29281 22.5601 7.27547C22.4654 7.10837 22.3589 6.93652 22.2464 6.76466C22.0714 6.54196 21.7058 6.47583 21.4297 6.61697C21.178 6.74564 21.0841 7.00527 21.2107 7.22294C21.3113 7.37091 21.406 7.52368 21.4829 7.6669C21.5985 7.91349 21.9401 8.03779 22.2458 7.94448C22.5515 7.85117 22.7057 7.57571 22.5901 7.32912Z" fill="white"/>
<path d="M21.4889 5.77168C20.9977 5.18927 20.4769 4.65463 20.1277 4.30617C19.9344 4.09358 19.5641 4.0476 19.3005 4.20351C19.0369 4.35942 18.9799 4.65815 19.1732 4.87079C19.1848 4.88354 19.1972 4.89585 19.2104 4.90766C19.5477 5.2418 20.0448 5.75261 20.5064 6.30638C20.6895 6.52522 21.0578 6.5829 21.3291 6.43527C21.6004 6.28764 21.6719 5.99053 21.4889 5.77168Z" fill="white"/>
<path d="M13.5911 17.2215C13.498 16.9684 13.1681 16.8241 12.8543 16.8992C12.524 16.9787 12.1811 17.0189 11.8364 17.0186C11.5096 17.0186 11.2446 17.2323 11.2446 17.4959C11.2446 17.7596 11.5096 17.9733 11.8364 17.9733C12.2953 17.974 12.7518 17.921 13.1917 17.8158C13.5054 17.7407 13.6843 17.4746 13.5911 17.2215Z" fill="white"/>
<path d="M16.3993 13.066C16.3062 12.8129 15.9763 12.6686 15.6625 12.7438C15.3487 12.8189 15.1699 13.085 15.263 13.3381C15.6318 14.3353 15.301 15.4154 14.3989 16.1594C14.1699 16.3474 14.1731 16.6496 14.4062 16.8345C14.5106 16.9172 14.6492 16.9658 14.7954 16.9709C14.9536 16.9704 15.1049 16.9188 15.2157 16.8277C16.4295 15.841 16.8829 14.4002 16.3993 13.066Z" fill="white"/>
</g>
<defs>
<clipPath id="clip0">
<rect width="42" height="27" rx="12" fill="white"/>
</clipPath>
</defs>
</svg>
