<svg width="24" height="24" viewBox="0 0 24 24" fill="none" xmlns="http://www.w3.org/2000/svg">
<path d="M19.5 6C19.4531 6 19.4062 6.04688 19.4062 6.04688C19.4531 5.76562 19.5 5.53125 19.5 5.25C19.5 3.1875 17.8125 1.5 15.75 1.5C14.5781 1.5 13.5469 2.0625 12.8906 2.85938C12 1.17188 10.2656 0 8.25 0C5.34375 0 3 2.39062 3 5.25C3 5.625 3 5.95312 3.09375 6.28125C1.26562 6.84375 0 8.53125 0 10.5C0 12.9844 2.01562 15 4.5 15H19.5C21.9844 15 24 12.9844 24 10.5C24 8.01562 21.9844 6 19.5 6ZM4.125 17.5781C3.51562 19.6406 2.25 20.2031 2.25 21.6562C2.25 22.9688 3.23438 24 4.5 24C5.71875 24 6.75 22.9688 6.75 21.6562C6.75 20.2031 5.4375 19.6406 4.875 17.5781C4.73438 17.2031 4.21875 17.1562 4.125 17.5781ZM11.625 17.5781C11.0156 19.6406 9.75 20.2031 9.75 21.6562C9.75 22.9688 10.7344 24 12 24C13.2188 24 14.25 22.9688 14.25 21.6562C14.25 20.2031 12.9375 19.6406 12.375 17.5781C12.2344 17.2031 11.7188 17.1562 11.625 17.5781ZM19.125 17.5781C18.5156 19.6406 17.25 20.2031 17.25 21.6562C17.25 22.9688 18.2344 24 19.5 24C20.7188 24 21.75 22.9688 21.75 21.6562C21.75 20.2031 20.4375 19.6406 19.875 17.5781C19.7344 17.2031 19.2188 17.1562 19.125 17.5781Z" fill="white" fill-opacity="0.9"/>
</svg>
