<svg width="264" height="177" viewBox="0 0 264 177" fill="none" xmlns="http://www.w3.org/2000/svg">
<path d="M34.9799 110.628C33.0665 109.99 30.7461 110.513 29.7955 111.796L12.0628 135.71C11.1121 136.992 11.8916 138.547 13.8051 139.185C15.7306 139.828 18.0449 139.29 18.9895 138.018L36.7201 114.104C37.6708 112.821 36.8914 111.265 34.9799 110.628Z" fill="white"/>
<path d="M60.5839 110.628C58.6705 109.99 56.3502 110.513 55.3995 111.796L37.6668 135.71C36.3798 137.447 38.2912 139.458 41.1271 139.458C42.5491 139.458 43.9167 138.93 44.5935 138.018L62.3242 114.104C63.2769 112.821 62.4954 111.265 60.5839 110.628Z" fill="white"/>
<path d="M214.591 110.628C212.677 109.99 210.357 110.513 209.406 111.796L191.674 135.71C190.723 136.992 191.502 138.547 193.416 139.185C193.97 139.37 194.556 139.458 195.134 139.458C196.556 139.458 197.923 138.93 198.6 138.018L216.333 114.104C217.282 112.821 216.504 111.265 214.591 110.628Z" fill="white"/>
<path d="M240.195 110.628C238.281 109.99 235.961 110.513 235.01 111.796L217.28 135.71C216.329 136.992 217.108 138.547 219.02 139.185C219.574 139.37 220.16 139.458 220.738 139.458C222.16 139.458 223.529 138.93 224.204 138.018L241.937 114.104C242.888 112.821 242.108 111.265 240.195 110.628Z" fill="white"/>
<path d="M164.706 102.805L138.272 102.434L159.378 57.904C161.07 54.3362 154.128 51.8285 150.617 54.7481L79.803 113.657C76.387 116.497 79.3962 120.736 84.8525 120.736H109.925L73.1039 171.945C70.5681 175.47 77.5291 178.592 81.4224 175.685L169.395 110.059C173.107 107.291 170.251 102.883 164.706 102.805ZM88.2263 162.852L117.754 121.787C119.826 118.902 116.696 115.55 111.911 115.55H87.4609L147.686 65.45L130.395 101.928C129.083 104.699 132.107 107.533 136.441 107.595L161.824 107.951L88.2263 162.852Z" fill="white"/>
<path d="M233.236 47.4748C235.226 26.7434 202.492 13.2988 177.452 24.2979C163.421 10.282 140.782 2 116.1 2C78.9531 2 47.7235 20.9691 42.1201 46.1973C18.7901 46.6268 0 59.9863 0 76.3451L0.00201416 76.5827C0.13092 88.2583 14.4818 97.7584 31.9889 97.7584H87.189C89.326 97.7584 91.0562 96.5971 91.0562 95.1656C91.0562 93.7329 89.326 92.5729 87.189 92.5729H31.9889C18.7136 92.5729 7.83307 85.382 7.73639 76.5503L7.73438 76.3451C7.73438 62.2307 24.607 50.6064 45.2985 51.4153C47.363 51.495 49.1556 50.4741 49.3691 49.0953C53.0389 25.4727 81.5956 7.18555 116.1 7.18555C139.42 7.18555 160.726 15.4797 173.093 29.3727C174.318 30.746 177.087 31.0539 178.906 30.0276C199.279 18.5276 229.385 30.7231 225.215 49.0089C224.907 50.3566 226.208 51.6327 228.192 51.9311C244.459 54.3754 256.266 64.6425 256.266 76.3451L256.264 76.5436C256.167 85.382 245.286 92.5729 232.011 92.5729H153.336C151.199 92.5729 149.469 93.7329 149.469 95.1656C149.469 96.5971 151.199 97.7584 153.336 97.7584H232.011C249.518 97.7584 263.869 88.2583 263.998 76.5746L264 76.3451C264 63.0261 251.454 51.3154 233.236 47.4748Z" fill="white"/>
</svg>
