<svg width="24" height="22" viewBox="0 0 24 22" fill="none" xmlns="http://www.w3.org/2000/svg">
<path d="M7.3125 11H0.75C0.328125 11 0 11.375 0 11.75V13.25C0 13.6719 0.328125 14 0.75 14H7.40625C8.15625 14 8.85938 14.5156 8.95312 15.2656C9.09375 16.2031 8.39062 17 7.5 17C6.79688 17 6.23438 16.5781 6.04688 16.0156C5.95312 15.6875 5.67188 15.5 5.34375 15.5H3.79688C3.32812 15.5 2.95312 15.9219 3.04688 16.3906C3.46875 18.4531 5.29688 20 7.45312 20C10.1719 20 12.2812 17.6562 11.9531 14.9375C11.6719 12.6406 9.60938 11 7.3125 11ZM0.75 9.5H16.5C19.2656 9.5 21.4688 6.96875 20.8594 4.0625C20.5312 2.375 19.125 0.96875 17.4375 0.640625C14.8594 0.078125 12.5156 1.8125 12.0469 4.15625C11.9531 4.625 12.3281 5 12.7969 5H14.3438C14.6719 5 14.9531 4.85938 15.0469 4.53125C15.2344 3.96875 15.7969 3.5 16.5 3.5C17.3906 3.5 18.0938 4.34375 17.9531 5.28125C17.8594 6.03125 17.1562 6.5 16.4062 6.5H0.75C0.328125 6.5 0 6.875 0 7.25V8.75C0 9.17188 0.328125 9.5 0.75 9.5ZM18.75 11H11.3906C12.3281 11.7969 12.9375 12.8281 13.2656 14H18.75C19.9688 14 21 15.0312 21 16.25C21 17.5156 19.9688 18.5 18.75 18.5C17.9062 18.5 17.1562 18.0781 16.7812 17.375C16.6406 17.1406 16.3594 17 16.0781 17H14.5312C14.0156 17 13.6406 17.5156 13.7812 18.0312C14.625 20.375 17.1094 21.9688 19.875 21.4062C21.7969 20.9844 23.3906 19.4375 23.8125 17.5156C24.6562 14.0938 22.0312 11 18.75 11Z" fill="white" fill-opacity="0.9"/>
</svg>
