<svg width="29" height="22" fill="none" xmlns="http://www.w3.org/2000/svg"><path d="M14.036 15.907c-.268-2.014-2.41-3.587-5.002-3.587-2.056 0-3.874.982-4.648 2.475h-.023C1.957 14.795 0 16.41 0 18.398 0 20.384 1.957 22 4.363 22a7.357 7.357 0 0 0 .167 0h9.34a.598.598 0 0 0 .096-.008c1.932-.111 3.434-1.438 3.434-3.044 0-1.591-1.481-2.902-3.364-3.041zm-.194 5.21-.038.003h-9.21a.532.532 0 0 0-.087-.003c-1.88.06-3.452-1.179-3.452-2.72 0-1.5 1.484-2.722 3.308-2.722.111 0 .22.004.328.013.24.023.472-.104.55-.298.526-1.31 2.05-2.19 3.793-2.19 2.192 0 3.976 1.406 3.976 3.138 0 .12.059.236.163.319a.579.579 0 0 0 .389.12l.142-.002c1.457 0 2.641.975 2.641 2.172 0 1.158-1.099 2.11-2.502 2.17zM15.03 9.672a.62.62 0 0 0 .1.008h9.34l.042-.001.125.001C27.043 9.68 29 8.064 29 6.078c0-1.987-1.957-3.603-4.363-3.603h-.023C23.841.982 22.023 0 19.967 0c-2.592 0-4.732 1.572-5.002 3.587-1.883.14-3.365 1.45-3.365 3.04 0 1.607 1.501 2.933 3.43 3.045zm.266-5.217c.048 0 .095.001.142.003a.592.592 0 0 0 .389-.123.413.413 0 0 0 .163-.32c0-1.729 1.784-3.135 3.976-3.135 1.744 0 3.267.88 3.793 2.19.078.195.313.315.55.298.107-.009.217-.013.328-.013 1.824 0 3.308 1.221 3.308 2.723 0 1.54-1.58 2.788-3.452 2.72l-.024-.001c-.02 0-.04 0-.06.003h-9.212l-.04-.003c-1.403-.06-2.503-1.012-2.503-2.17 0-1.197 1.185-2.172 2.642-2.172zM9.338 9.57l-5.177.573c-.288.031-.491.253-.453.494.035.221.262.382.522.382a.641.641 0 0 0 .07-.004l5.771-.64a.546.546 0 0 0 .369-.191.38.38 0 0 0 .071-.358L9.025 5.162c-.075-.235-.364-.374-.645-.312-.282.062-.45.304-.374.538L9.338 9.57z" fill="#fff"/><path d="M.527 9.259a.644.644 0 0 0 .07-.004l5.771-.64a.547.547 0 0 0 .369-.19.38.38 0 0 0 .071-.358L5.322 3.402c-.074-.235-.363-.373-.645-.312-.282.063-.449.304-.374.538L5.635 7.81l-5.177.574c-.289.032-.492.253-.453.494.035.221.261.382.522.382zM18.62 13.33l5.177-.574c.288-.032.491-.253.453-.494-.038-.241-.304-.41-.592-.378l-5.771.64a.547.547 0 0 0-.37.19.38.38 0 0 0-.07.358l1.485 4.664c.063.197.276.327.51.327.044 0 .09-.005.136-.014.281-.063.449-.304.374-.539l-1.332-4.18z" fill="#fff"/><path d="m27.348 14.524-5.77.64a.547.547 0 0 0-.37.19.38.38 0 0 0-.07.358l1.485 4.664c.063.197.276.327.51.327.044 0 .09-.005.135-.014.282-.063.45-.304.375-.539l-1.332-4.18 5.177-.574c.288-.032.491-.253.453-.494-.038-.241-.304-.409-.593-.378z" fill="#fff"/></svg>