<svg width="88" height="61" fill="none" xmlns="http://www.w3.org/2000/svg"><path d="M72.36 40.607H15.64c-4.133 0-8.042-1.257-11.007-3.54C1.645 34.768 0 31.718 0 28.48c0-3.239 1.645-6.29 4.633-8.59 2.34-1.802 5.269-2.964 8.432-3.374a6.459 6.459 0 0 1-.002-.165c0-8.918 9.252-16.172 20.624-16.172 4.218 0 8.271.995 11.721 2.879 2.43 1.326 4.446 3.024 5.945 4.992 2.42-1.177 5.211-1.807 8.116-1.807 7.714 0 14.128 4.451 15.283 10.25 3.233.388 6.23 1.56 8.615 3.397C86.355 22.19 88 25.24 88 28.48c0 3.238-1.645 6.289-4.633 8.589-2.965 2.282-6.874 3.54-11.008 3.54zM15.64 20.393c-5.78 0-10.484 3.627-10.484 8.085 0 4.46 4.703 8.087 10.485 8.087h56.718c5.782 0 10.485-3.628 10.485-8.086 0-4.46-4.703-8.086-10.485-8.086h-2.578V18.37c0-4.458-4.626-8.086-10.312-8.086-2.71 0-5.273.825-7.218 2.323l-2.775 2.137-1.43-2.837c-2.352-4.67-7.988-7.687-14.358-7.687-8.53 0-15.47 5.44-15.47 12.129 0 .478.096.991.198 1.535l.462 2.508H15.64zM28.531 52.736c-8.06 0-15.952-2.038-16.284-2.125l-2.445-.64 1.63-3.834 2.444.638c.074.02 7.452 1.918 14.655 1.918 7.203 0 14.581-1.899 14.655-1.918.33-.086 8.223-2.125 16.283-2.125s15.952 2.039 16.284 2.126l2.445.639-1.63 3.835-2.446-.639c-.072-.019-7.45-1.918-14.653-1.918s-14.581 1.9-14.655 1.919c-.33.086-8.223 2.124-16.283 2.124zM28.531 60.822c-8.06 0-15.952-2.038-16.284-2.125l-2.445-.64 1.63-3.835 2.444.64c.074.018 7.452 1.917 14.655 1.917 7.203 0 14.581-1.899 14.655-1.918.33-.086 8.223-2.125 16.283-2.125s15.952 2.039 16.284 2.126l2.445.639-1.63 3.835-2.446-.639c-.072-.019-7.45-1.918-14.653-1.918s-14.581 1.9-14.655 1.918c-.33.087-8.223 2.125-16.283 2.125z" fill="#fff"/></svg>