<svg width="27" height="21" fill="none" xmlns="http://www.w3.org/2000/svg"><g clip-path="url(#a)" fill="#fff"><path d="M26.04 8.426c0-2.607-4.687-6.955-5.628-7.8C19.95.23 19.179.21 18.688.584a1.11 1.11 0 0 0-.052.042 33.406 33.406 0 0 0-4.38 4.816A50.462 50.462 0 0 0 12.7 3.967c-.461-.395-1.233-.414-1.723-.042a1.108 1.108 0 0 0-.052.042 50.07 50.07 0 0 0-4.486 4.66 29.252 29.252 0 0 0-1.355-1.7c-.372-.434-1.11-.542-1.647-.242a1.1 1.1 0 0 0-.3.242C2.427 7.796 0 10.746 0 12.245c-.01 1.727 1.614 3.176 3.746 3.341.988 3.604 5.41 5.88 9.879 5.084 3.79-.676 6.49-3.384 6.497-6.516-.004-.16-.02-.319-.048-.477 3.382-.229 5.978-2.514 5.966-5.251zM4.143 13.677c-.98 0-1.776-.641-1.776-1.432 0-.477.811-1.752 1.776-3.022.964 1.27 1.775 2.545 1.775 3.022 0 .79-.795 1.432-1.775 1.432zm7.693 5.251c-2.763-.012-5.152-1.556-5.77-3.728 1.363-.576 2.217-1.714 2.22-2.955a3.735 3.735 0 0 0-.498-1.551c.048-.21.153-.41.308-.583a44.89 44.89 0 0 1 3.74-4.043c2.592 2.473 5.918 6.268 5.918 8.086 0 2.637-2.65 4.774-5.918 4.774zm7.694-7.16h-.142a24.221 24.221 0 0 0-3.504-4.664.633.633 0 0 1 .095-.168 24.739 24.739 0 0 1 3.551-4.2c1.941 1.91 4.143 4.496 4.143 5.69 0 1.845-1.855 3.341-4.143 3.341z"/><path d="M22.59 7.33a9.448 9.448 0 0 0-.344-.564c-.175-.224-.54-.29-.816-.149-.252.129-.346.388-.22.606.101.148.196.3.273.444.116.246.457.37.763.277.306-.093.46-.368.344-.615zM21.489 5.772a23.937 23.937 0 0 0-1.361-1.466c-.194-.212-.564-.258-.828-.102-.263.155-.32.454-.127.667a20.679 20.679 0 0 1 1.333 1.436c.183.218.552.276.823.128.271-.147.343-.444.16-.663zM13.591 17.221c-.093-.253-.423-.397-.737-.322-.33.08-.673.12-1.018.12-.326 0-.591.213-.591.477s.265.477.591.477c.46.001.916-.052 1.356-.157.313-.075.492-.341.4-.595zM16.4 13.066c-.094-.253-.424-.397-.737-.322-.314.075-.493.341-.4.594.369.997.038 2.077-.864 2.821-.23.188-.226.49.007.675a.667.667 0 0 0 .39.137c.158 0 .309-.052.42-.143 1.214-.987 1.667-2.428 1.183-3.762z"/></g><defs><clipPath id="a"><rect width="42" height="27" rx="12" fill="#fff"/></clipPath></defs></svg>