<svg width="24" height="24" fill="none" xmlns="http://www.w3.org/2000/svg"><path d="M19.5 6c-.047 0-.094.047-.094.047.047-.281.094-.516.094-.797a3.761 3.761 0 0 0-3.75-3.75 3.724 3.724 0 0 0-2.86 1.36C12 1.171 10.267 0 8.25 0 5.344 0 3 2.39 3 5.25c0 .375 0 .703.094 1.031A4.389 4.389 0 0 0 0 10.5C0 12.984 2.016 15 4.5 15h15a4.501 4.501 0 0 0 0-9zM4.125 17.578c-.61 2.063-1.875 2.625-1.875 4.078C2.25 22.97 3.234 24 4.5 24c1.219 0 2.25-1.031 2.25-2.344 0-1.453-1.313-2.015-1.875-4.078-.14-.375-.656-.422-.75 0zm7.5 0c-.61 2.063-1.875 2.625-1.875 4.078C9.75 22.97 10.734 24 12 24c1.219 0 2.25-1.031 2.25-2.344 0-1.453-1.313-2.015-1.875-4.078-.14-.375-.656-.422-.75 0zm7.5 0c-.61 2.063-1.875 2.625-1.875 4.078 0 1.313.984 2.344 2.25 2.344 1.219 0 2.25-1.031 2.25-2.344 0-1.453-1.313-2.015-1.875-4.078-.14-.375-.656-.422-.75 0z" fill="#fff" fill-opacity=".9"/></svg>