<svg width="24" height="22" fill="none" xmlns="http://www.w3.org/2000/svg"><path d="M7.313 11H.75c-.422 0-.75.375-.75.75v1.5c0 .422.328.75.75.75h6.656c.75 0 1.453.516 1.547 1.266C9.093 16.203 8.391 17 7.5 17c-.703 0-1.266-.422-1.453-.984-.094-.328-.375-.516-.703-.516H3.797c-.469 0-.844.422-.75.89.422 2.063 2.25 3.61 4.406 3.61a4.51 4.51 0 0 0 4.5-5.063C11.672 12.642 9.61 11 7.313 11zM.75 9.5H16.5a4.471 4.471 0 0 0 4.36-5.438C20.53 2.375 19.124.97 17.437.642c-2.579-.563-4.922 1.171-5.391 3.515-.094.469.281.844.75.844h1.547c.328 0 .61-.14.703-.469A1.538 1.538 0 0 1 16.5 3.5c.89 0 1.594.844 1.453 1.781-.094.75-.797 1.219-1.547 1.219H.75c-.422 0-.75.375-.75.75v1.5c0 .422.328.75.75.75zm18 1.5h-7.36c.938.797 1.547 1.828 1.876 3h5.484c1.219 0 2.25 1.031 2.25 2.25a2.25 2.25 0 0 1-2.25 2.25c-.844 0-1.594-.422-1.969-1.125-.14-.234-.422-.375-.703-.375h-1.547c-.515 0-.89.516-.75 1.031a5.305 5.305 0 0 0 6.094 3.375c1.922-.422 3.516-1.968 3.938-3.89C24.655 14.094 22.03 11 18.75 11z" fill="#fff" fill-opacity=".9"/></svg>